<?xml version="1.0" encoding="utf-8"?>
<!-- Generator: Adobe Illustrator 23.0.4, SVG Export Plug-In . SVG Version: 6.00 Build 0)  -->
<svg version="1.1" id="Layer_1" xmlns="http://www.w3.org/2000/svg" xmlns:xlink="http://www.w3.org/1999/xlink" x="0px" y="0px"
	 viewBox="0 0 301.62 228.79" style="enable-background:new 0 0 301.62 228.79;" xml:space="preserve">
<g>
	<path d="M71.61,210.43c-4.23-1.01-8.62-1.59-12.67-3.09c-20.95-7.74-33.78-22.76-37.16-44.77c-4.19-27.22,11.58-52.27,37.48-61.14
		c1.57-0.54,1.89-1.32,1.9-2.85c0.13-26.05,17.03-47.87,42.18-54.44c8.24-2.16,16.6-2.31,24.93-0.54c1.31,0.28,1.9,0.03,2.68-0.94
		c11.19-13.81,25.59-21.78,43.3-23.8c32.31-3.69,61.78,18,69.01,48.43c1.68,7.08,2.47,14.24,1.41,21.5
		c-0.2,1.38,0.14,2.24,1.43,3.04c15.96,9.84,25.86,23.99,29.8,42.3c0.48,2.25,0.8,4.53,1.2,6.8c0,3.67,0,7.33,0,11
		c-0.32,1.69-0.62,3.38-0.95,5.07c-4.93,25.33-19.69,42.16-44.06,50.44c-4.33,1.47-8.98,2.02-13.49,2.99
		C169.61,210.43,120.61,210.43,71.61,210.43z M80.27,114.24c-3.62,0.28-7.14,0.21-10.52,0.87c-21.73,4.2-35.22,24.68-32.23,45.13
		c2.75,18.82,19.66,34.16,38.6,34.18c45.48,0.04,90.97,0.04,136.45-0.02c3.3,0,6.66-0.29,9.88-0.98
		c18.36-3.96,30.81-15.01,36.42-32.79c5.57-17.66,1.4-33.65-11.17-47.24c-5.98-6.47-13.49-10.67-21.97-13.09
		c10.42-27.79-4.83-52.62-24.6-61.49c-10.54-4.73-21.44-5.82-32.54-2.72c-14.85,4.15-25.34,13.61-31.76,27.58
		c-19.04-10.23-37.13-4.02-46.83,5.44C76.79,81.99,73.94,97.31,80.27,114.24z"/>
	<path d="M149.34,83.37c15.38,15.38,31.13,31.13,46.96,46.96c-10.22,0-20.55,0-31.16,0c0,16.12,0,31.98,0,47.96
		c-10.73,0-21.19,0-31.91,0c0-15.83,0-31.68,0-47.79c-10.62,0-20.97,0-31.01,0C117.96,114.75,133.73,98.97,149.34,83.37z"/>
</g>
</svg>
